<svg id="Calque_1" data-name="Calque 1" xmlns="http://www.w3.org/2000/svg" viewBox="0 0 1200 1200"><defs><style>.cls-1{fill:#efffbb;}.cls-2{fill:#1d1d1b;}.cls-3,.cls-5{fill:none;stroke:#1d1d1b;stroke-miterlimit:10;}.cls-3{stroke-width:11.24px;}.cls-4{fill:#fff;}.cls-5{stroke-width:8.14px;}.cls-6{fill:#706f6f;}.cls-7{fill:#ffd873;}.cls-8{fill:#f5f5f5;}.cls-9{fill:#a42933;}.cls-10{fill:#f9bd01;}</style></defs><polygon class="cls-1" points="276 788.06 276 413.94 600 226.88 924 413.94 924 788.06 600 975.12 276 788.06"/><path class="cls-2" d="M600,236.11,916,418.56V783.44L600,965.89,284,783.44V418.56L600,236.11m0-18.47-8,4.62L276,404.7l-8,4.62V792.68l8,4.62L592,979.74l8,4.62,8-4.62L924,797.3l8-4.62V409.32l-8-4.62L608,222.26l-8-4.62Z"/><g id="Appareil_photo" data-name="Appareil photo"><path class="cls-2" d="M798.7,455a22.22,22.22,0,0,1,22.19,22.19v219.3a22.22,22.22,0,0,1-22.19,22.19H401.3a22.22,22.22,0,0,1-22.19-22.19V477.15A22.22,22.22,0,0,1,401.3,455H798.7m0-11.24H401.3a33.53,33.53,0,0,0-33.43,33.43v219.3a33.54,33.54,0,0,0,33.43,33.43H798.7a33.54,33.54,0,0,0,33.43-33.43V477.15a33.53,33.53,0,0,0-33.43-33.43Z"/><line class="cls-3" x1="367.87" y1="521.96" x2="832.13" y2="521.96"/><path class="cls-2" d="M707.11,719.07a157.77,157.77,0,0,1-214.22,0"/><circle class="cls-1" cx="600.54" cy="602.36" r="144.81"/><circle class="cls-4" cx="600.54" cy="602.36" r="127.09"/><path class="cls-2" d="M600.54,486.51A115.85,115.85,0,1,1,484.69,602.36,115.85,115.85,0,0,1,600.54,486.51m0-22.48a138.34,138.34,0,1,0,97.81,40.52A137.41,137.41,0,0,0,600.54,464Z"/><circle class="cls-4" cx="600.54" cy="602.36" r="77.38" transform="translate(-184.8 275.67) rotate(-22.5)"/><path class="cls-2" d="M600.54,544.43a57.93,57.93,0,1,1-57.92,57.93,57.93,57.93,0,0,1,57.92-57.93m0-38.9a96.83,96.83,0,1,0,96.83,96.83,96.94,96.94,0,0,0-96.83-96.83Z"/><path class="cls-4" d="M600.54,634.35a32,32,0,1,1,32-32A32,32,0,0,1,600.54,634.35Z"/><path class="cls-2" d="M600.54,591.55a10.81,10.81,0,1,1-10.81,10.81,10.81,10.81,0,0,1,10.81-10.81m0-42.36a53.17,53.17,0,1,0,53.17,53.17,53.23,53.23,0,0,0-53.17-53.17Z"/><circle class="cls-1" cx="632.96" cy="557.83" r="28.53"/><circle class="cls-1" cx="549.97" cy="662.01" r="7.35"/><path class="cls-3" d="M651.34,410H548.66a8.39,8.39,0,0,0-8.15,6.4l-7.94,32.5H667.43l-7.94-32.5A8.39,8.39,0,0,0,651.34,410Z"/><rect class="cls-2" x="565.42" y="422.1" width="69.16" height="14.7" rx="7.33"/><rect class="cls-2" x="726.76" y="473.11" width="72.62" height="27.67" rx="8.97"/><circle class="cls-2" cx="467.4" cy="486.94" r="14.7"/><path class="cls-2" d="M720.53,431.61h47.9a4.15,4.15,0,0,1,4.15,4.15v8.82a0,0,0,0,1,0,0H716.39a0,0,0,0,1,0,0v-8.82A4.15,4.15,0,0,1,720.53,431.61Z"/><path class="cls-2" d="M734.37,421.24H754.6a2,2,0,0,1,2,2v9.25a0,0,0,0,1,0,0H732.38a0,0,0,0,1,0,0v-9.25A2,2,0,0,1,734.37,421.24Z"/></g><polygon class="cls-2" points="668.56 926.31 665.95 927.81 657.74 922.25 668.56 926.31"/><path class="cls-2" d="M607.36,846.55h.07C607.53,846.56,607.5,846.56,607.36,846.55Z"/><path class="cls-2" d="M624.27,951.88l-4.76,2.75L611,948.69S619.71,950.56,624.27,951.88Z"/><path class="cls-2" d="M746,881.62l-6.7,3.87-2.17-2.17c-12.56-12.62-13.61-14.52-14-16-1-2.12-7.72-11.37-13.72-19.28l18.94,42.66-15.7-12.15,10.31,16.33-12.52,7.23-21.71-18.33a27,27,0,0,0-7.68-4.58l-9.1-3.46c-10.58-4-20.17-11.45-27.83-21.54l-20.4-26.83-24.79-39.37L584.79,805.2a5.32,5.32,0,0,0-.41,5.84l5.16,9-7-1.65,4.79,16s18.14,11.77,20,12.16c-.85,0-5.71-.17-10.54-.3-4-.09-6.32,5.87-3.73,9.81l14.35,22,22.68,10.48c22,9.19,54,13.85,54,13.85l15.55,6,8.71,3.34-11.78-1.56L661,905.41l-17.14-.71,12.06,14.24L631,901.57a27.68,27.68,0,0,0-19.56-5L597,898.5,576,883.57l-10.82-8.06,7,1.5-8.39-14.42-23.52-22.15-.66-.66-1.11-1L536.64,837l6.23,22.69,5.34,6.05-5.06-1.86L547,867.6l7.82,7.91-8-4.23h-4.46l-6.49,1.23,7.42,18.8-2.19,14.37,17.45,6.63,13.1,21.54,19.18,8.84-22.24-2.22L549,927.22l-13.41,1.46L477.3,895.05l.56-.63,23.61-31.8s6.87-8.43,7.11-8.84,5.32-7.35,5.32-7.35l3.51-4.67.74-1.75,9.8-22.47,13.25,12.77,15.23-10.74.88-1.38c11.1-17.16,25.38-30.6,41.56-39.11l2-1.08,27.38,43.5,28.64,28.56L681,830.79l31.73,9.83.66.86c12.48,16.38,15,20.83,15.6,22.41C730.38,865.9,737.72,873.49,746,881.62Z"/><polygon class="cls-2" points="572.41 915.85 594.13 930.98 617.09 930.13 572.41 915.85"/><line class="cls-5" x1="288" y1="790" x2="288" y2="410"/><line class="cls-5" x1="912" y1="790" x2="912" y2="410"/><path class="cls-6" d="M632.87,320.71c-4-5.66-9.69-10.17-13.7-15.84-3.08-4.36-4.37-9.07-5.1-14.19a3.77,3.77,0,0,0,3.27-3.6v-3.57a3.6,3.6,0,0,0-2-3.17v-8.2c0-6.44-4.73-11.89-11.22-13.63V257.3a4.5,4.5,0,0,0-9,0v1.21c-6.49,1.74-11.23,7.19-11.23,13.63v8.2a3.62,3.62,0,0,0-2,3.17v3.57a3.82,3.82,0,0,0,3.61,3.65,32.08,32.08,0,0,1-5.34,14.14c-6.11,8.66-15.17,14.78-17.9,25.32a28.83,28.83,0,0,0,1.66,18.27c5.26,12.53,17.62,22.75,32.69,24a37.82,37.82,0,0,0,29.86-10.86C637.57,351,642,333.55,632.87,320.71Z"/><path class="cls-2" d="M599.62,257.92a17.3,17.3,0,0,0-4.48.58v-1.2a4.5,4.5,0,0,1,9,0v1.2A17.36,17.36,0,0,0,599.62,257.92Z"/><path class="cls-7" d="M626.47,361.64a37.82,37.82,0,0,1-29.86,10.86c-15.07-1.29-27.43-11.51-32.69-24a28.83,28.83,0,0,1-1.66-18.27c2.72-10.54,11.79-16.66,17.9-25.32a32.13,32.13,0,0,0,5.34-14.14l.44,0H613.3a3.94,3.94,0,0,0,.77-.07c.73,5.12,2,9.83,5.1,14.19,4,5.67,9.69,10.18,13.7,15.84C642,333.55,637.57,351,626.47,361.64Z"/><path class="cls-2" d="M617.34,283.51v3.57a3.87,3.87,0,0,1-4,3.67H585.94a3.87,3.87,0,0,1-4.05-3.67v-3.57a3.87,3.87,0,0,1,4.05-3.67H613.3A3.87,3.87,0,0,1,617.34,283.51Z"/><path class="cls-8" d="M626.16,328.65a2.52,2.52,0,0,0-2.24-1.37,7.24,7.24,0,0,0-2.79.53c-6.2,2.16-11.8,5.67-17.72,8.48a3.89,3.89,0,0,0-2.32-2.06l1.73-41.35h-6.63l1.73,41.44a3.87,3.87,0,0,0-2,1.76c-6.19-3.07-11.93-7.05-18.4-9.54a7.16,7.16,0,0,0-2.76-.62,2.54,2.54,0,0,0-2.3,1.3,2,2,0,0,0,.17,1.75,6.67,6.67,0,0,0,3.25,2.48c5.73,2.68,12.51,4.25,19.63,6.08,0,.05,0,.11,0,.17a3.85,3.85,0,0,0,3.42,3.66c-.87,6.24-1.77,12.13-1.3,17.63a5.8,5.8,0,0,0,1.25,3.67,2.55,2.55,0,0,0,1.72.82,2.52,2.52,0,0,0,2.22-1.41,5.53,5.53,0,0,0,.44-2.55c0-6.1-1.68-12.18-2.45-18.27A3.8,3.8,0,0,0,603.7,338c6.84-1.51,13.32-2.85,18.89-5.25a6.75,6.75,0,0,0,3.34-2.37A2,2,0,0,0,626.16,328.65Z"/><path class="cls-9" d="M586.93,363a36.1,36.1,0,0,1-6.42-3.94c-7-5.43-11.79-13.29-12.76-21.65-.08-.64-1.19-.64-1.12,0a30.32,30.32,0,0,0,1.72,7.12,34.38,34.38,0,0,0,7,11.23,36.55,36.55,0,0,0,11,8.11C587,364.19,587.56,363.32,586.93,363Z"/><path class="cls-9" d="M594,366.08a.52.52,0,0,0-.55-.5,3.84,3.84,0,0,1-.59,0h0l-.15,0-.27-.07-.28-.08,0,0-.13-.05a4.67,4.67,0,0,1-.49-.27.6.6,0,0,0-.76.18.49.49,0,0,0-.06.39.58.58,0,0,0,.26.3,4.42,4.42,0,0,0,2.55.67A.54.54,0,0,0,594,366.08Z"/><path class="cls-9" d="M632.31,328.09a30.33,30.33,0,0,0-9.83-15.2c-.53-.43-1.32.28-.78.71a27.88,27.88,0,0,1,6.49,7.62,30.34,30.34,0,0,1,4.21,16.17,21.07,21.07,0,0,1-6.11,14.66c-.5.47.29,1.19.78.71a20.35,20.35,0,0,0,5.1-8A27.56,27.56,0,0,0,632.31,328.09Z"/><path class="cls-9" d="M621.56,356.24a.48.48,0,0,0-.2.69.6.6,0,0,0,.76.19,6.5,6.5,0,0,0,2.06-1.55.52.52,0,0,0,.16-.36.48.48,0,0,0-.16-.36.6.6,0,0,0-.39-.14.63.63,0,0,0-.4.14,5.63,5.63,0,0,1-.87.82l-.12.09c-.1.06,0,0,0,0l0,0-.27.17A5.36,5.36,0,0,1,621.56,356.24Z"/><path class="cls-9" d="M582,310.86c.5-.47-.29-1.18-.79-.72a80.14,80.14,0,0,0-9.47,10.41c-.41.54.55,1,1,.51A77.81,77.81,0,0,1,582,310.86Z"/><path class="cls-9" d="M586.15,306.1a.45.45,0,0,0,.06-.39.51.51,0,0,0-.26-.3.63.63,0,0,0-.43-.05.56.56,0,0,0-.33.23c-.33.44-.65.88-1,1.31a.46.46,0,0,0-.06.39.53.53,0,0,0,.26.31.7.7,0,0,0,.43,0,.62.62,0,0,0,.33-.24C585.5,307,585.83,306.54,586.15,306.1Z"/><path class="cls-2" d="M586.54,276c2-.26,3.94-.45,5.92-.57a87.27,87.27,0,0,1,20.92,1.23c.7.13,1-.85.29-1-2-.36-4-.66-6-.88a88.39,88.39,0,0,0-21.44.21C585.53,275.1,585.84,276.07,586.54,276Z"/><path class="cls-2" d="M613.69,270.53q-3-.63-6.08-1a76.14,76.14,0,0,0-21.53.46c-.71.12-.41,1.09.29,1,2-.33,4-.58,6-.74a74.82,74.82,0,0,1,21,1.27C614.1,271.64,614.39,270.67,613.69,270.53Z"/><path class="cls-2" d="M612,265.25a20.78,20.78,0,0,0-5.17-1.64,41.44,41.44,0,0,0-10.26-.32c-3.27.22-6.67.38-9.67,1.66-.65.27-.09,1.14.56.87a18,18,0,0,1,5.11-1.19,68.16,68.16,0,0,1,9.79-.47,23.2,23.2,0,0,1,9.08,2C612.1,266.42,612.66,265.55,612,265.25Z"/><path class="cls-10" d="M566.64,313.49a1,1,0,0,0,0-1.43,49.22,49.22,0,0,1-4.51-4.51,1.21,1.21,0,0,0-1.57,0,1,1,0,0,0-.33.71,1.07,1.07,0,0,0,.33.72,49.11,49.11,0,0,0,4.5,4.51A1.24,1.24,0,0,0,566.64,313.49Z"/><path class="cls-10" d="M557.71,330.88a1.08,1.08,0,0,0-1.11-1l-5.49-.38a1.08,1.08,0,0,0-1.11,1c0,.57.54,1,1.11,1l5.49.38A1.08,1.08,0,0,0,557.71,330.88Z"/><path class="cls-10" d="M560.47,352.31a1.27,1.27,0,0,0-.79.3l-.22.15-.26.19-.64.43c-.43.29-.87.57-1.31.84-.87.55-1.77,1.07-2.68,1.58a1,1,0,0,0-.4,1.38,1.2,1.2,0,0,0,1.52.36,56.82,56.82,0,0,0,5.57-3.51,1,1,0,0,0,0-1.42A1.19,1.19,0,0,0,560.47,352.31Z"/><path class="cls-10" d="M578,370.26a1.2,1.2,0,0,0-1.53.36q-1.59,2.53-3.2,5.07a1,1,0,0,0,.4,1.38,1.21,1.21,0,0,0,1.53-.36q1.59-2.54,3.2-5.07A1,1,0,0,0,578,370.26Z"/><path class="cls-10" d="M635.36,313.49a1,1,0,0,1,0-1.43,49.22,49.22,0,0,0,4.51-4.51,1.21,1.21,0,0,1,1.57,0,1,1,0,0,1,.33.71,1.07,1.07,0,0,1-.33.72,49.11,49.11,0,0,1-4.5,4.51A1.24,1.24,0,0,1,635.36,313.49Z"/><path class="cls-10" d="M644.29,330.88a1.08,1.08,0,0,1,1.11-1l5.49-.38a1.08,1.08,0,0,1,1.11,1c0,.57-.54,1-1.11,1l-5.49.38A1.08,1.08,0,0,1,644.29,330.88Z"/><path class="cls-10" d="M641.53,352.31a1.27,1.27,0,0,1,.79.3l.22.15.26.19.64.43c.43.29.87.57,1.31.84.87.55,1.77,1.07,2.68,1.58a1,1,0,0,1,.4,1.38,1.2,1.2,0,0,1-1.52.36,56.82,56.82,0,0,1-5.57-3.51,1,1,0,0,1,0-1.42A1.19,1.19,0,0,1,641.53,352.31Z"/><path class="cls-10" d="M624,370.26a1.2,1.2,0,0,1,1.53.36q1.59,2.53,3.2,5.07a1,1,0,0,1-.4,1.38,1.21,1.21,0,0,1-1.53-.36q-1.59-2.54-3.2-5.07A1,1,0,0,1,624,370.26Z"/></svg>